<svg id="Layer_1" data-name="Layer 1" xmlns="http://www.w3.org/2000/svg" viewBox="0 0 430.88 500"><defs><style>.cls-1{fill:#2f2d2e;}.cls-1,.cls-3{fill-rule:evenodd;}.cls-2,.cls-3{fill:#fff;}</style></defs><path class="cls-1" d="M676.31,250H323.69c-28.58,0-39.13,10.55-39.13,39.14v345a87.64,87.64,0,0,0,.42,9c.65,6.24.77,12.29,6.57,19.17.57.68,6.5,5.09,6.5,5.09,3.18,1.56,5.36,2.71,9,4.16l173.63,72.75c9,4.13,12.79,5.74,19.33,5.61H500c6.54.13,10.31-1.48,19.33-5.61L693,671.63c3.6-1.45,5.77-2.6,9-4.16,0,0,5.93-4.41,6.5-5.09,5.8-6.88,5.92-12.93,6.57-19.17a87.64,87.64,0,0,0,.42-9v-345c0-28.59-10.55-39.14-39.13-39.14" transform="translate(-284.56 -250)"/><path class="cls-2" d="M652.69,596.89l-.08.8-.08.87-.16.8-.23.79-.16.72-.24.8-.32.71-.31.64-.32.72-.4.63L650,605l-.48.64-.4.63-.47.56-.55.56-.48.48-.63.55-.56.48-.63.48-.64.39-.63.48-.71.4-.72.31-.71.4-.79.32-.79.32-.79.24-.8.24-.71.23-.79.16L637,613l-.71.16-.79.16-.79.08-.71.08-.8.08-.87.08-.79.08h-3.33l-.79-.08h-.87l-.8-.08-.79-.08-.87-.08-.79-.16-.79-.08-.8-.16-.79-.16-.79-.16-.79-.15-.8-.24-.71-.16-.79-.24-.79-.24-.72-.32-.79-.24-.71-.23-.79-.32-.72-.32-.71-.32-.71-.39-.72-.32-.71-.4-.63-.4-.72-.4-.63-.39-.64-.4-.63-.48-.63-.48-.64-.47-.63-.48-.56-.48-.63-.56.48-.63.55-.56.48-.64.55-.63.48-.56.47-.64.56-.63.47-.56.56-.64.47-.55.56-.64.47-.64.48-.56.55-.63.48-.64.55-.56L612,594l.63.48.71.47.64.48.71.48.64.4.71.47.63.4.72.32.63.4.71.32.72.31.71.32.71.24.72.32.79.24.79.24.71.24.8.16.79.15.79.16.87.08.79.16h.8l.87.08h1.74l.87-.08.8-.16.71-.16.71-.16.64-.23.55-.32.63-.48.48-.56.32-.63.24-.72.07-.8v-.16l-.07-.95-.32-.8-.4-.55-.55-.48-.64-.48-.63-.32-.71-.32-.8-.31-1-.4-.55-.16-.63-.16-.72-.24-.71-.16-.79-.24-.8-.16-.87-.23-.79-.16-.87-.24-.79-.16-.8-.24-.79-.16-.79-.24-.72-.24-.79-.16-.71-.23-.71-.24-.72-.24-.87-.32-.79-.32-.79-.32-.8-.32-.71-.39-.79-.4-.64-.4-.71-.4-.63-.47-.64-.4-.55-.48-.56-.56-.55-.56-.48-.55-.47-.56-.4-.56-.39-.63-.4-.72-.32-.55-.24-.64-.23-.71-.24-.64-.16-.8-.16-.71-.08-.8-.08-.8-.08-.87v-1.83l.08-.8.08-.71.08-.8.16-.72.16-.71.24-.72.16-.71.31-.72.32-.72.32-.71.39-.72.4-.72.47-.63.48-.64.55-.64.56-.55.55-.64.64-.56.55-.4.64-.47.63-.48.63-.4.72-.4.71-.31.71-.4.72-.32.79-.24.79-.32.72-.24.63-.16.71-.15.72-.16.79-.16.71-.16.79-.08.8-.08.79-.08.79-.08h3.41l.87.08.87.08h.79l.87.08.8.16.87.08.79.16.71.16.8.15.79.16.71.16.79.24.72.24.71.16.79.32.72.24.71.31.71.32.79.32.72.4.63.32.71.4.72.39.63.4.71.48.64.4.63.48.64.47.63.48-.48.64-.39.63-.48.64-.47.64-.48.71-.4.64-.47.64-.48.63-.39.64-.48.64-.47.63-.4.64-.47.72-.48.63-.48.64-.39.64-.48.63-.63-.47-.71-.4-.64-.4-.63-.48-.71-.32-.64-.39-.71-.32-.63-.32-.72-.32-.63-.32-.71-.24-.64-.31-.87-.24-.79-.24-.79-.24-.8-.16-.79-.16-.79-.16-.79-.08-.8-.08-.71-.08h-1.74l-.87.16-.8.16-.71.16-.63.32-.56.32-.71.63-.48.72-.31.72-.08.79V571l.08,1,.39.87.32.48.55.56.72.39.63.4.79.32.88.32,1,.32.63.16.63.23.72.16.71.24.79.16.87.24.88.24.87.24.87.16.79.24.87.24.79.15.8.24.79.24.71.24.79.24.72.24.71.24.87.31.79.4.8.32.79.39.71.4.72.4.63.4.63.48.64.39.63.56.63.56.56.64.55.55.48.64.47.71.4.64.4.72.31.63.24.72.24.72.16.71.15.8.16.8.08.79.08.88V596Zm-55.56,15.92h-45.4V554.87h45.79V568H566.86v9.47h27.57v12.33H566.86v9.87h31.06v13.13Zm-57.9,0H524.74V578.55l-.4.64-.47.72-.4.63-.48.64-.39.72-.48.63-.39.64-.4.72-.47.64-.4.63-.48.64-.39.72-.48.64-.39.64-.4.71-.48.64-.39.64-.48.72-.39.63-.48.64-.39.72-.4.64-.48.63-.39.72-.48.64-.39.64-.48.64-.4.71-.39.64-.48.64-.39.72-.48.63-.4.64-.47.72-.4.64h-.31l-.48-.72-.4-.64-.47-.72-.4-.63-.47-.72-.4-.64-.47-.72-.4-.63-.48-.72L505,595l-.48-.72-.39-.64-.48-.71-.4-.64-.47-.72-.4-.64-.47-.71-.48-.64-.4-.72-.47-.64-.4-.71-.47-.64-.4-.72-.47-.64-.4-.71-.48-.64-.39-.72-.48-.64-.39-.71-.48-.64-.4-.72-.47-.63-.4-.72-.47-.64v34.1H479.41V554.87h16.25l.39.64.4.72.47.63.4.72.4.63.39.72.4.63.47.72.4.63.4.64.39.71.4.64.47.71.4.64.4.71.39.64.48.64.4.71.39.63.4.72.39.64.48.71.4.64.39.71.4.63.39.64.48.72.4.63.39.72.4.63.39.72.48.64.4.71.39.63.4-.63.39-.71.48-.64.39-.72.4-.63.4-.72.47-.63.4-.72.4-.64.39-.63.48-.71.39-.64.4-.71.39-.64.48-.72.4-.63.4-.71.39-.64.4-.64.47-.71.4-.64.39-.71.4-.64.47-.71.4-.64.4-.63.4-.72.47-.63.4-.72.39-.63.4-.72.47-.63.4-.72.39-.64H540v57.94ZM447.3,588.93l-.24-.72-.31-.79-.32-.72-.24-.72-.31-.72-.32-.79-.24-.72L445,583l-.31-.72-.24-.72-.32-.79-.23-.72-.32-.72-.32-.72-.24-.71-.31-.8-.32-.72-.24-.72-.32-.72-.31-.79-.24-.72-.32-.72-.31.72-.24.72-.32.79-.32.72-.23.72-.32.72-.32.8-.31.71-.24.72-.32.72-.32.72-.23.79-.32.72-.32.72-.24.72-.31.72-.32.79-.32.72-.23.72-.32.72-.32.79-.24.72-.31.72h13.39Zm24.88,23.88H456.65l-.31-.72-.24-.72-.32-.71-.32-.8-.23-.71-.32-.72-.32-.71-.23-.72-.32-.72-.32-.71-.24-.72-.31-.79-.32-.72-.24-.72-.32-.71H429.55l-.31.71-.24.72-.32.72-.32.79-.23.72-.32.71-.32.72-.24.72-.31.71-.32.72-.24.71-.31.8-.32.71-.24.72-.32.72h-16l.32-.72.32-.72.31-.71.32-.8.24-.71.31-.72.32-.71.32-.72.31-.72.32-.79.32-.72.32-.71.23-.72.32-.72.31-.71.32-.8.32-.72.32-.71.32-.72.31-.71.24-.72.31-.8.32-.71.32-.72.31-.72.32-.71.32-.72.32-.8.24-.71.31-.72.32-.71.32-.72.31-.72.32-.79.32-.72.31-.71.24-.72.32-.72.31-.71.32-.8.32-.72.31-.71.32-.72.32-.71L423,580l.31-.71.32-.8.32-.71.31-.72.32-.72.32-.71.31-.72.24-.8.32-.71.32-.72.31-.71.32-.72.32-.72.31-.79.32-.72.24-.72.32-.71.31-.72.32-.71.32-.8.31-.72.32-.71.32-.72.23-.71.32-.72.32-.8.32-.71.31-.72.32-.72.32-.71.31-.72.24-.79.32-.72.32-.72.31-.71h14.66l.32.71.32.72.31.72.32.79.24.72.31.71.32.72.32.72.32.71.31.8.32.72.32.71.23.72.32.71.32.72.32.8.31.71.32.72.32.71.31.72.24.72.32.79.31.72.32.72.32.71.32.72.31.71.32.8.24.72.31.71.32.72.32.72.32.71.31.8.32.71.32.72.23.71.32.72.32.71.31.72.32.8.32.71.32.72.31.72.24.71.32.72.31.79.32.72.32.72.31.71.32.72.32.71.23.8.32.72.32.71.32.72.31.72.32.71.32.8.32.72.23.71.32.72.32.71.31.72.32.8.32.71.31.72.32.72.24.71.32.72.31.79.32.72.31.72.32.71.32.72.32.71.24.8.31.71.32.72.31.72Zm-69.41-7.4-.64.47-.55.4-.64.48-.63.4-.63.48L399,608l-.63.4-.72.4-.71.4-.71.4-.71.31-.72.4-.79.32-.71.31-.79.32-.72.32-.71.24-.71.24-.72.24-.79.24-.71.24-.79.15-.72.16-.79.16-.79.16-.79.08-.87.08-.8.08-.87.08-.79.08-.87.08H376.7l-.79-.08-.87-.08-.79-.08-.8-.08-.79-.08-.79-.16-.8-.16-.71-.16-.79-.16-.71-.23-.79-.16-.72-.24-.71-.32-.72-.24-.79-.32-.71-.32-.71-.31-.71-.32-.72-.4-.63-.39-.72-.4-.63-.4-.63-.4L359,608l-.63-.47-.64-.48-.55-.48-.55-.48-.56-.55-.55-.48-.56-.56-.55-.55-.48-.56-.47-.64-.48-.56-.4-.63-.47-.64-.4-.63-.39-.64-.4-.72-.4-.63-.31-.72-.32-.72-.32-.71-.31-.72-.24-.64-.32-.71-.16-.72-.23-.72-.16-.79-.24-.72-.16-.79-.08-.72-.16-.8-.08-.71-.08-.8-.07-.79-.08-.8V583l.08-.87v-.8l.07-.79.08-.88.16-.79.08-.8.16-.71.24-.8.16-.79.23-.72.24-.8.24-.71.32-.8.31-.71.32-.72.32-.72.31-.71.4-.72.4-.64.39-.63.4-.64.4-.64L353,566l.48-.64.47-.64.48-.55.55-.56.48-.56.55-.55.56-.56.55-.48.63-.56.56-.47L359,560l.64-.4.63-.48.64-.4.63-.39.71-.4.72-.4.71-.4.71-.32.71-.31.8-.4.63-.24.79-.24.72-.32.71-.16.71-.24.79-.15.72-.24.79-.16.79-.08.79-.16.8-.08.79-.08.79-.08.79-.08h3.41l.87.08.87.08h.79l.8.08.87.16.71.08.79.16.8.16.71.16.71.15.71.16.72.24.71.16.63.24.72.24.71.32.71.32.72.31.71.4.71.32.64.4.71.4.63.39.72.4.63.48.63.4.64.48.63.47.64.56.63.48-.48.63-.55.56-.48.64-.55.63-.48.64-.47.56-.56.63-.47.64-.48.56-.55.64-.48.63-.55.64-.48.56-.47.63-.56.64-.47.64-.56.55-.47.64-.64-.48-.63-.55-.63-.4-.64-.48-.63-.4-.64-.4-.63-.39-.71-.4-.64-.32-.63-.32-.63-.24-.72-.24-.71-.23-.71-.16-.79-.16-.8-.16-.79-.08-.87-.08-.87-.08h-1.67l-.79.08-.71.08-.79.16-.72.16-.71.24-.71.23-.72.32-.71.32-.63.4-.63.4-.64.4-.55.47-.56.48-.55.48-.48.55-.55.56-.48.64-.4.56-.39.63-.4.72-.39.63-.32.72-.24.72-.32.71-.23.8-.16.79-.16.72-.16.87-.08.8L363,583v1.84l.08.79.08.72.08.79.16.72.16.72.16.71.23.72.24.63.32.8.32.72.39.71.4.64.39.64.48.63.48.56.55.56.48.55.55.48.63.48.64.48.63.4.63.39.72.32.71.32.71.32.8.24.79.24.79.16.79.15.79.08.88.08h1.82l.87-.08.87-.08.79-.08.8-.16L384,600l.79-.24.71-.16.72-.32.63-.32.71-.32.56-.31.63-.4v-7.25H377.17V579.07h26.15v25.86ZM377.29,423.8h34.34V397.24H377.29V343H413V316.45H348.13v191.7h65.41V481.59H377.29Zm246,5.75v43.27c0,7.67-3.55,11.23-10.9,11.23H606.9c-7.63,0-11.17-3.56-11.17-11.23v-121c0-7.67,3.54-11.22,11.17-11.22h4.91c7.36,0,10.9,3.55,10.9,11.22V389.3h28.62V350.13c0-23.83-11.45-35.33-35.16-35.33H602c-23.71,0-35.43,11.78-35.43,35.6V474.19c0,23.83,11.72,35.61,35.43,35.61h14.44c23.72,0,35.43-11.78,35.43-35.61V429.55ZM522,508.15h29.16V316.44H522ZM479.67,401.62c0,7.67-3.54,11.23-10.9,11.23h-12V342.19h12c7.36,0,10.9,3.56,10.9,11.23Zm-6.27-85.18H427.62V508.15h29.16V438.59H473.4c23.71,0,35.43-11.78,35.43-35.6V352.05c0-23.83-11.72-35.61-35.43-35.61" transform="translate(-284.56 -250)"/><path class="cls-3" d="M416.92,681.49H583.86l-85.21,28.1Z" transform="translate(-284.56 -250)"/></svg>